<svg width="857" height="400" viewBox="0 0 857 400" xmlns="http://www.w3.org/2000/svg"><mask id="satori_om-id"><rect x="0" y="0" width="857" height="400" fill="#fff"/></mask><rect x="0" y="0" width="857" height="400" fill="#fff"/><mask id="satori_om-id-0"><rect x="283" y="201" width="292" height="38" fill="#fff"/></mask><path fill="black" d="M293.3 231.0L293.3 231.0L285.0 231.0L285.0 207.7L293.3 207.7Q296.9 207.7 299.4 209.1Q301.9 210.5 303.3 213.1Q304.7 215.7 304.7 219.3L304.7 219.3Q304.7 222.9 303.3 225.5Q301.9 228.2 299.4 229.6Q296.8 231.0 293.3 231.0ZM289.9 211.9L289.9 226.7L293.1 226.7Q295.3 226.7 296.7 226.0Q298.2 225.2 299.0 223.5Q299.8 221.9 299.8 219.3L299.8 219.3Q299.8 216.7 299.0 215.1Q298.2 213.4 296.8 212.7Q295.3 211.9 293.1 211.9L293.1 211.9L289.9 211.9ZM313.2 231.3L313.2 231.3Q311.5 231.3 310.2 230.7Q308.9 230.1 308.1 229.0Q307.4 227.8 307.4 226.1L307.4 226.1Q307.4 224.6 307.9 223.6Q308.5 222.6 309.4 222.0Q310.3 221.4 311.5 221.1Q312.6 220.8 313.9 220.7L313.9 220.7Q315.5 220.5 316.4 220.4Q317.3 220.3 317.8 220.0Q318.2 219.7 318.2 219.1L318.2 219.1L318.2 219.1Q318.2 218.0 317.5 217.4Q316.8 216.8 315.6 216.8L315.6 216.8Q314.3 216.8 313.5 217.4Q312.7 218.0 312.5 218.8L312.5 218.8L308 218.5Q308.3 216.9 309.3 215.7Q310.3 214.5 311.9 213.9Q313.5 213.3 315.6 213.3L315.6 213.3Q317.1 213.3 318.4 213.6Q319.7 214.0 320.8 214.7Q321.8 215.4 322.4 216.5Q323.0 217.6 323.0 219.2L323.0 219.2L323.0 231.0L318.4 231.0L318.4 228.5L318.3 228.5Q317.9 229.3 317.2 230.0Q316.5 230.6 315.5 230.9Q314.5 231.3 313.2 231.3ZM314.6 227.9L314.6 227.9Q315.6 227.9 316.5 227.5Q317.3 227.1 317.7 226.4Q318.2 225.6 318.2 224.7L318.2 224.7L318.2 222.9Q318.0 223.0 317.6 223.1Q317.2 223.2 316.7 223.3Q316.2 223.4 315.7 223.5Q315.2 223.6 314.8 223.6L314.8 223.6Q314.0 223.8 313.4 224.0Q312.7 224.3 312.4 224.8Q312.0 225.2 312.0 225.9L312.0 225.9Q312.0 226.9 312.7 227.4Q313.5 227.9 314.6 227.9ZM331.6 220.9L331.6 220.9L331.6 231.0L326.8 231.0L326.8 213.5L331.4 213.5L331.4 216.6L331.6 216.6Q332.2 215.1 333.5 214.2Q334.9 213.3 336.8 213.3L336.8 213.3Q338.7 213.3 340.0 214.1Q341.4 214.9 342.1 216.3Q342.9 217.8 342.9 219.8L342.9 219.8L342.9 231.0L338.0 231.0L338.0 220.7Q338.0 219.1 337.2 218.2Q336.4 217.3 334.9 217.3L334.9 217.3Q333.9 217.3 333.2 217.7Q332.5 218.1 332.0 218.9Q331.6 219.7 331.6 220.9ZM351.5 231.0L346.7 231.0L346.7 213.5L351.5 213.5L351.5 231.0ZM349.1 211.2L349.1 211.2Q348.0 211.2 347.3 210.5Q346.5 209.8 346.5 208.8L346.5 208.8Q346.5 207.8 347.3 207.1Q348.0 206.3 349.1 206.3L349.1 206.3Q350.2 206.3 350.9 207.1Q351.7 207.8 351.7 208.8L351.7 208.8Q351.7 209.8 350.9 210.5Q350.2 211.2 349.1 211.2ZM363.3 231.3L363.3 231.3Q360.6 231.3 358.7 230.2Q356.8 229.1 355.7 227.1Q354.7 225.1 354.7 222.3L354.7 222.3Q354.7 219.6 355.7 217.6Q356.8 215.5 358.7 214.4Q360.6 213.3 363.1 213.3L363.1 213.3Q364.9 213.3 366.4 213.8Q367.9 214.4 369.0 215.5Q370.1 216.6 370.7 218.2Q371.3 219.9 371.3 222.1L371.3 222.1L371.3 223.5L356.6 223.5L356.6 220.5L366.8 220.5Q366.8 219.4 366.3 218.6Q365.9 217.8 365.1 217.3Q364.3 216.9 363.2 216.9L363.2 216.9Q362.1 216.9 361.3 217.4Q360.4 217.9 359.9 218.7Q359.5 219.6 359.5 220.6L359.5 220.6L359.5 223.5Q359.5 224.8 359.9 225.7Q360.4 226.7 361.3 227.2Q362.2 227.7 363.4 227.7L363.4 227.7Q364.2 227.7 364.9 227.5Q365.6 227.2 366.0 226.8Q366.5 226.3 366.8 225.7L366.8 225.7L371.2 226.0Q370.9 227.6 369.8 228.8Q368.8 230.0 367.1 230.6Q365.5 231.3 363.3 231.3ZM374.5 207.7L379.3 207.7L379.3 231.0L374.5 231.0L374.5 207.7Z M390.7 231.0L390.7 207.7L396.8 207.7L403.2 223.3L403.5 223.3L409.9 207.7L415.9 207.7L415.9 231.0L411.2 231.0L411.2 215.8L411.0 215.8L405.0 230.8L401.7 230.8L395.7 215.7L395.5 215.7L395.5 231.0L390.7 231.0ZM422.7 231.2L422.7 231.2Q421.6 231.2 420.8 230.4Q420.0 229.6 420.0 228.5L420.0 228.5Q420.0 227.4 420.8 226.6Q421.6 225.8 422.7 225.8L422.7 225.8Q423.8 225.8 424.6 226.6Q425.5 227.4 425.5 228.5L425.5 228.5Q425.5 229.3 425.1 229.9Q424.7 230.5 424.1 230.9Q423.5 231.2 422.7 231.2Z M436.9 231.0L436.9 207.7L443.0 207.7L449.4 223.3L449.7 223.3L456.1 207.7L462.2 207.7L462.2 231.0L457.4 231.0L457.4 215.8L457.2 215.8L451.2 230.8L447.9 230.8L441.9 215.7L441.7 215.7L441.7 231.0L436.9 231.0ZM471.1 231.3L471.1 231.3Q469.4 231.3 468.1 230.7Q466.8 230.1 466.1 229.0Q465.3 227.8 465.3 226.1L465.3 226.1Q465.3 224.6 465.8 223.6Q466.4 222.6 467.3 222.0Q468.2 221.4 469.4 221.1Q470.6 220.8 471.9 220.7L471.9 220.7Q473.4 220.5 474.3 220.4Q475.2 220.3 475.7 220.0Q476.1 219.7 476.1 219.1L476.1 219.1L476.1 219.1Q476.1 218.0 475.4 217.4Q474.7 216.8 473.5 216.8L473.5 216.8Q472.2 216.8 471.4 217.4Q470.6 218.0 470.4 218.8L470.4 218.8L465.9 218.5Q466.2 216.9 467.2 215.7Q468.2 214.5 469.8 213.9Q471.4 213.3 473.5 213.3L473.5 213.3Q475.0 213.3 476.3 213.6Q477.6 214.0 478.7 214.7Q479.7 215.4 480.3 216.5Q480.9 217.6 480.9 219.2L480.9 219.2L480.9 231.0L476.3 231.0L476.3 228.5L476.2 228.5Q475.8 229.3 475.1 230.0Q474.4 230.6 473.4 230.9Q472.4 231.3 471.1 231.3ZM472.5 227.9L472.5 227.9Q473.5 227.9 474.4 227.5Q475.2 227.1 475.6 226.4Q476.1 225.6 476.1 224.7L476.1 224.7L476.1 222.9Q475.9 223.0 475.5 223.1Q475.1 223.2 474.6 223.3Q474.1 223.4 473.6 223.5Q473.1 223.6 472.7 223.6L472.7 223.6Q471.9 223.8 471.3 224.0Q470.6 224.3 470.3 224.8Q469.9 225.2 469.9 225.9L469.9 225.9Q469.9 226.9 470.6 227.4Q471.4 227.9 472.5 227.9ZM483.5 213.5L494.0 213.5L494.0 217.1L483.5 217.1L483.5 213.5ZM485.8 226.2L485.8 209.3L490.7 209.3L490.7 225.6Q490.7 226.3 490.9 226.6Q491.1 227.0 491.5 227.1Q491.8 227.3 492.3 227.3L492.3 227.3Q492.7 227.3 493.0 227.2Q493.3 227.2 493.5 227.1L493.5 227.1L494.3 230.7Q493.9 230.8 493.3 231.0Q492.6 231.2 491.7 231.2L491.7 231.2Q489.9 231.3 488.6 230.7Q487.3 230.2 486.6 229.1Q485.8 227.9 485.8 226.2L485.8 226.2ZM504.8 231.3L504.8 231.3Q502.2 231.3 500.2 230.2Q498.3 229.0 497.3 227.0Q496.2 225.0 496.2 222.3L496.2 222.3Q496.2 219.6 497.3 217.6Q498.3 215.5 500.2 214.4Q502.2 213.3 504.8 213.3L504.8 213.3Q507.5 213.3 509.4 214.4Q511.3 215.5 512.4 217.6Q513.4 219.6 513.4 222.3L513.4 222.3Q513.4 225.0 512.4 227.0Q511.3 229.0 509.4 230.2Q507.5 231.3 504.8 231.3ZM504.8 227.5L504.8 227.5Q506.0 227.5 506.9 226.9Q507.7 226.2 508.1 225.0Q508.5 223.8 508.5 222.3L508.5 222.3Q508.5 220.7 508.1 219.5Q507.7 218.3 506.9 217.7Q506.0 217.0 504.8 217.0L504.8 217.0Q503.6 217.0 502.8 217.7Q502.0 218.3 501.6 219.5Q501.1 220.7 501.1 222.3L501.1 222.3Q501.1 223.8 501.6 225.0Q502.0 226.2 502.8 226.9Q503.6 227.5 504.8 227.5ZM521.4 220.9L521.4 220.9L521.4 231.0L516.6 231.0L516.6 213.5L521.2 213.5L521.2 216.6L521.4 216.6Q522.0 215.1 523.3 214.2Q524.7 213.3 526.6 213.3L526.6 213.3Q528.5 213.3 529.8 214.1Q531.2 214.9 531.9 216.3Q532.7 217.8 532.7 219.8L532.7 219.8L532.7 231.0L527.8 231.0L527.8 220.7Q527.8 219.1 527 218.2Q526.2 217.3 524.7 217.3L524.7 217.3Q523.7 217.3 523.0 217.7Q522.3 218.1 521.8 218.9Q521.4 219.7 521.4 220.9ZM544.3 237.9L544.3 237.9Q542.0 237.9 540.3 237.2Q538.6 236.6 537.6 235.5Q536.6 234.4 536.4 233.0L536.4 233.0L540.8 232.4Q541.0 232.9 541.5 233.4Q541.9 233.8 542.7 234.1Q543.4 234.4 544.4 234.4L544.4 234.4Q546.0 234.4 547.1 233.6Q548.1 232.8 548.1 231.1L548.1 231.1L548.1 227.9L547.9 227.9Q547.6 228.6 546.9 229.2Q546.3 229.9 545.3 230.3Q544.3 230.7 542.9 230.7L542.9 230.7Q540.9 230.7 539.3 229.8Q537.7 228.9 536.8 227.0Q535.8 225.1 535.8 222.2L535.8 222.2Q535.8 219.2 536.8 217.2Q537.8 215.2 539.4 214.3Q541.0 213.3 542.9 213.3L542.9 213.3Q544.4 213.3 545.3 213.8Q546.3 214.3 546.9 215.0Q547.5 215.7 547.9 216.4L547.9 216.4L548.1 216.4L548.1 213.5L552.9 213.5L552.9 231.1Q552.9 233.3 551.8 234.8Q550.7 236.3 548.8 237.1Q546.8 237.9 544.3 237.9ZM544.4 227.1L544.4 227.1Q545.6 227.1 546.4 226.5Q547.2 225.9 547.7 224.8Q548.1 223.7 548.1 222.2L548.1 222.2Q548.1 220.6 547.7 219.5Q547.2 218.4 546.4 217.7Q545.6 217.1 544.4 217.1L544.4 217.1Q543.2 217.1 542.4 217.8Q541.6 218.4 541.2 219.5Q540.8 220.7 540.8 222.2L540.8 222.2Q540.8 223.7 541.2 224.8Q541.6 225.9 542.4 226.5Q543.2 227.1 544.4 227.1ZM564.6 231.3L564.6 231.3Q562.0 231.3 560.0 230.2Q558.1 229.0 557.1 227.0Q556.0 225.0 556.0 222.3L556.0 222.3Q556.0 219.6 557.1 217.6Q558.1 215.5 560.0 214.4Q562.0 213.3 564.6 213.3L564.6 213.3Q567.3 213.3 569.2 214.4Q571.1 215.5 572.2 217.6Q573.2 219.6 573.2 222.3L573.2 222.3Q573.2 225.0 572.2 227.0Q571.1 229.0 569.2 230.2Q567.3 231.3 564.6 231.3ZM564.6 227.5L564.6 227.5Q565.8 227.5 566.6 226.9Q567.5 226.2 567.9 225.0Q568.3 223.8 568.3 222.3L568.3 222.3Q568.3 220.7 567.9 219.5Q567.5 218.3 566.6 217.7Q565.8 217.0 564.6 217.0L564.6 217.0Q563.4 217.0 562.6 217.7Q561.8 218.3 561.4 219.5Q560.9 220.7 560.9 222.3L560.9 222.3Q560.9 223.8 561.4 225.0Q561.8 226.2 562.6 226.9Q563.4 227.5 564.6 227.5Z "/></svg>